<svg width="96" height="71" viewBox="0 0 96 71" fill="none" xmlns="http://www.w3.org/2000/svg">
<mask id="path-1-inside-1_105_578" fill="white">
<path fill-rule="evenodd" clip-rule="evenodd" d="M0 8.18895H7.03228V61.3421L25.3162 60.7184L47.8195 67.1947L70.3228 60.7184L88.6068 61.3421V8.18896H95.639V70.073H88.6068V70.073H47.8195L7.03228 70.073H0V8.18895Z"/>
</mask>
<path fill-rule="evenodd" clip-rule="evenodd" d="M0 8.18895H7.03228V61.3421L25.3162 60.7184L47.8195 67.1947L70.3228 60.7184L88.6068 61.3421V8.18896H95.639V70.073H88.6068V70.073H47.8195L7.03228 70.073H0V8.18895Z" fill="#4B4338"/>
<path d="M7.03228 8.18895V3.18895H12.0323V8.18895H7.03228ZM0 8.18895H-5V3.18895H0V8.18895ZM7.03228 61.3421L7.20272 66.3392L2.03228 66.5155V61.3421H7.03228ZM25.3162 60.7184L25.1458 55.7213L25.9376 55.6943L26.699 55.9135L25.3162 60.7184ZM47.8195 67.1947L49.2023 71.9997L47.8195 72.3976L46.4367 71.9997L47.8195 67.1947ZM70.3228 60.7184L68.94 55.9135L69.7014 55.6943L70.4933 55.7213L70.3228 60.7184ZM88.6068 61.3421H93.6068V66.5155L88.4363 66.3392L88.6068 61.3421ZM88.6068 8.18896H83.6068V3.18896H88.6068V8.18896ZM95.639 8.18896V3.18896H100.639V8.18896H95.639ZM95.639 70.073H100.639V75.073H95.639V70.073ZM88.6068 70.073V75.073H83.6068V70.073H88.6068ZM88.6068 70.073V65.073H93.6068V70.073H88.6068ZM47.8195 70.073L47.8195 65.073H47.8195V70.073ZM7.03228 70.073L7.03228 75.073H7.03228V70.073ZM0 70.073V75.073H-5V70.073H0ZM7.03228 13.189H0V3.18895H7.03228V13.189ZM2.03228 61.3421V8.18895H12.0323V61.3421H2.03228ZM6.86184 56.345L25.1458 55.7213L25.4867 65.7155L7.20272 66.3392L6.86184 56.345ZM26.699 55.9135L49.2023 62.3897L46.4367 71.9997L23.9334 65.5234L26.699 55.9135ZM71.7056 65.5234L49.2023 71.9997L46.4367 62.3897L68.94 55.9135L71.7056 65.5234ZM88.4363 66.3392L70.1524 65.7155L70.4933 55.7213L88.7772 56.345L88.4363 66.3392ZM93.6068 8.18896V61.3421H83.6068V8.18896H93.6068ZM95.639 13.189H88.6068V3.18896H95.639V13.189ZM90.639 70.073V8.18896H100.639V70.073H90.639ZM88.6068 65.073H95.639V75.073H88.6068V65.073ZM93.6068 70.073V70.073H83.6068V70.073H93.6068ZM47.8195 65.073H88.6068V75.073H47.8195V65.073ZM47.8195 75.073L7.03228 75.073L7.03228 65.073L47.8195 65.073L47.8195 75.073ZM0 65.073H7.03228V75.073H0V65.073ZM5 8.18895V70.073H-5V8.18895H5Z" fill="#4B4338" mask="url(#path-1-inside-1_105_578)"/>
<path d="M27.124 2.88051C36.7785 3.95217 44.9715 8.83035 47.8199 10.7141V66.4406C43.5866 64.0003 36.2086 60.4549 27.6756 59.5077C18.7549 58.5175 11.0562 59.5312 6.9798 60.2965V3.7955C10.3933 3.09152 18.1032 1.87918 27.124 2.88051Z" stroke="#4B4338" stroke-width="5"/>
<path d="M68.5151 2.88051C58.8606 3.95217 50.6677 8.83035 47.8193 10.7141V66.4406C52.0526 64.0003 59.4305 60.4549 67.9635 59.5077C76.8842 58.5175 84.5829 59.5312 88.6594 60.2965V3.7955C85.2458 3.09152 77.536 1.87918 68.5151 2.88051Z" stroke="#4B4338" stroke-width="5"/>
</svg>
